<svg width="1755" height="1445" viewBox="0 0 1755 1445" fill="none" xmlns="http://www.w3.org/2000/svg">
<g clip-path="url(#clip0_50_273)">
<path d="M1755 1444.83H0V809.925H1755V1444.83Z" fill="#416900"/>
<g opacity="0.1">
<path d="M712.681 810.249H657.021L500.003 1444.83H595.205L712.681 810.249Z" fill="#13074A"/>
<path d="M720.277 1444.83H815.479L841.454 810.249H785.801L720.277 1444.83Z" fill="#13074A"/>
<path d="M399.475 810.249L59.457 1444.83H154.659L455.134 810.249H399.475Z" fill="#13074A"/>
<path d="M970.227 810.249H914.574L940.55 1444.83H1035.75L970.227 810.249Z" fill="#13074A"/>
<path d="M583.908 810.249H528.248L279.73 1444.83H374.932L583.908 810.249Z" fill="#13074A"/>
<path d="M1429.67 810.249L1755 1336.94V1208.52L1485.33 810.249H1429.67Z" fill="#13074A"/>
<path d="M0 1338.61L326.361 810.249H270.702L0 1210.12V1338.61Z" fill="#13074A"/>
<path d="M1356.55 810.249H1300.89L1601.37 1444.83H1696.57L1356.55 810.249Z" fill="#13074A"/>
<path d="M1099 810.249H1043.35L1160.82 1444.83H1256.02L1099 810.249Z" fill="#13074A"/>
<path d="M1227.77 810.249H1172.12L1381.1 1444.83H1476.3L1227.77 810.249Z" fill="#13074A"/>
<path d="M1755 988.035L1614.1 810.249H1558.44L1755 1073.71V988.035Z" fill="#13074A"/>
<path d="M1755 824.463L1742.87 810.249H1687.21L1755 891.021V824.463Z" fill="#13074A"/>
<path d="M0 1075.17L197.588 810.249H141.929L0 989.414V1075.17Z" fill="#13074A"/>
<path d="M0 892.308L68.8152 810.249H13.1556L0 825.692V892.308Z" fill="#13074A"/>
</g>
</g>
<path d="M1755 0H0V810H1755V0Z" fill="#0D0533"/>
<path d="M877.5 245.048C557.459 245.048 257.615 195.227 0 108.332V538.965H1755V108.332C1497.39 195.227 1197.54 245.048 877.5 245.048Z" fill="#13074A"/>
<mask id="mask0_50_273" style="mask-type:luminance" maskUnits="userSpaceOnUse" x="0" y="108" width="1755" height="431">
<path d="M877.5 245.048C557.459 245.048 257.615 195.227 0 108.332V538.965H1755V108.332C1497.39 195.227 1197.54 245.048 877.5 245.048Z" fill="white"/>
</mask>
<g mask="url(#mask0_50_273)">
<path d="M877.501 351.495C711.996 351.495 547.917 338.794 389.823 313.746C236.528 289.457 89.0326 253.609 -48.5566 207.203L-44.6285 199.361C233.992 293.344 552.86 343.018 877.501 343.018C1202.14 343.018 1521.01 293.344 1799.63 199.361L1803.56 207.203C1665.97 253.614 1518.47 289.457 1365.18 313.746C1207.08 338.794 1043.01 351.495 877.501 351.495Z" fill="#0D0533"/>
<path d="M877.501 454.59C712.003 454.59 547.931 442.226 389.85 417.847C236.562 394.206 89.0736 359.314 -48.5088 314.139L-44.6697 306.264C233.964 397.749 552.846 446.107 877.507 446.107C1202.17 446.107 1521.04 397.749 1799.68 306.264L1803.52 314.139C1665.94 359.314 1518.45 394.206 1365.16 417.847C1207.08 442.226 1043.01 454.59 877.514 454.59H877.501Z" fill="#0D0533"/>
<path d="M4.30647 53.7284L-4.32324 58.399L473.857 653.208L482.487 648.538L4.30647 53.7284Z" fill="#0D0533"/>
<path d="M580.327 180.214L570.505 182.862L749.025 628.639L758.847 625.991L580.327 180.214Z" fill="#0D0533"/>
<path d="M1750.71 53.7458L1272.52 648.555L1281.15 653.226L1759.34 58.4164L1750.71 53.7458Z" fill="#0D0533"/>
<path d="M1174.61 180.133L996.095 625.911L1005.92 628.559L1184.44 182.781L1174.61 180.133Z" fill="#0D0533"/>
</g>
<path opacity="0.2" d="M590.516 501.953H278.757C327.396 546.255 600.409 776.098 679.576 776.098C758.742 776.098 616.786 546.255 590.516 501.953Z" fill="#0D0533"/>
<path opacity="0.2" d="M1164.49 501.953H1476.25C1427.61 546.255 1154.6 776.098 1075.43 776.098C996.264 776.098 1138.22 546.255 1164.49 501.953Z" fill="#0D0533"/>
<defs>
<clipPath id="clip0_50_273">
<rect width="1755" height="634.904" fill="white" transform="translate(0 809.925)"/>
</clipPath>
</defs>
</svg>
