<svg width="667" height="667" viewBox="0 0 667 667" fill="none" xmlns="http://www.w3.org/2000/svg">
<path d="M333.333 0C152.633 0 0 152.633 0 333.333C0 514.033 152.633 666.667 333.333 666.667C514.033 666.667 666.667 514.033 666.667 333.333C666.667 152.633 514.033 0 333.333 0ZM333.333 166.667C390.9 166.667 433.333 209.067 433.333 266.667C433.333 324.267 390.9 366.667 333.333 366.667C275.8 366.667 233.333 324.267 233.333 266.667C233.333 209.067 275.8 166.667 333.333 166.667ZM163.133 492.4C193.033 448.4 242.9 419.067 300 419.067H366.667C423.8 419.067 473.633 448.4 503.533 492.4C460.933 538 400.5 566.667 333.333 566.667C266.167 566.667 205.733 538 163.133 492.4Z" fill="white"/>
</svg>
