<svg width="151" height="50" viewBox="0 0 151 50" fill="none" xmlns="http://www.w3.org/2000/svg">
<path d="M64.3436 6.44361C63.8236 6.67361 63.3136 6.79361 62.7336 6.79361C61.2136 6.79361 60.5736 5.77361 60.5736 4.54361C60.5736 3.30361 61.2136 2.25361 62.6336 2.25361C63.2136 2.25361 63.5936 2.35361 64.1136 2.60361L64.5636 1.37361C63.8936 1.06361 63.4036 0.913613 62.3536 0.913613C59.9036 0.913613 58.7636 2.64361 58.7636 4.54361C58.7636 6.47361 59.8736 8.08361 62.4936 8.08361C63.3236 8.08361 64.0836 7.94361 64.6936 7.65361L64.3436 6.44361ZM68.691 8.08361C70.861 8.08361 72.261 6.54361 72.261 4.49361C72.261 2.45361 70.881 0.913613 68.691 0.913613C66.511 0.913613 65.121 2.46361 65.121 4.49361C65.121 6.52361 66.521 8.08361 68.691 8.08361ZM68.691 6.75361C67.601 6.75361 66.931 5.93361 66.931 4.49361C66.931 3.01361 67.601 2.23361 68.691 2.23361C69.761 2.23361 70.451 3.01361 70.451 4.49361C70.451 5.96361 69.781 6.75361 68.691 6.75361ZM73.2438 5.09361C73.2438 7.09361 74.3938 8.08361 76.4338 8.08361C78.4838 8.08361 79.6438 6.88361 79.6438 5.16361V0.913613L77.8737 1.23361V5.08361C77.8737 6.11361 77.4238 6.79361 76.4638 6.79361C75.4938 6.79361 75.0138 6.18361 75.0138 5.03361V1.05361H73.2438V5.09361ZM80.9591 7.95361H82.7291V5.85361C82.9291 5.88361 83.1691 5.90361 83.3591 5.90361C85.0891 5.90361 86.4691 5.09361 86.4691 3.33361C86.4691 1.72361 85.2991 0.913613 83.9791 0.913613C83.4391 0.913613 83.0091 1.01361 82.5091 1.23361L80.9591 0.913613V7.95361ZM82.7291 2.14361C82.9091 2.11361 83.0891 2.07361 83.3991 2.07361C84.1891 2.07361 84.6591 2.56361 84.6591 3.36361C84.6591 4.15361 84.1591 4.74361 83.1891 4.74361C83.0591 4.74361 82.8991 4.73361 82.7291 4.71361V2.14361ZM87.3946 7.95361H92.4846V6.67361H89.1646V4.99361H91.5746V3.62361L89.1646 3.92361V2.33361H92.4046V1.05361H87.3946V7.95361ZM97.4068 2.15361C97.7168 2.11361 97.9868 2.09361 98.2468 2.09361C99.6868 2.09361 100.107 3.21361 100.107 4.45361C100.107 5.75361 99.6368 6.81361 98.1968 6.81361C97.9168 6.81361 97.6768 6.80361 97.4068 6.74361V2.15361ZM95.6368 7.76361C96.4968 8.02361 97.1868 8.08361 97.9268 8.08361C100.267 8.08361 101.917 6.84361 101.917 4.39361C101.917 2.35361 100.817 0.913613 98.7368 0.913613C98.1468 0.913613 97.6868 1.02361 97.1868 1.23361L95.6368 0.913613V7.76361ZM102.892 5.09361C102.892 7.09361 104.042 8.08361 106.082 8.08361C108.132 8.08361 109.292 6.88361 109.292 5.16361V0.913613L107.522 1.23361V5.08361C107.522 6.11361 107.072 6.79361 106.112 6.79361C105.142 6.79361 104.662 6.18361 104.662 5.03361V1.05361H102.892V5.09361ZM112.785 7.95361H114.545V3.38361L116.425 5.45361L118.295 3.38361V7.95361H120.065V1.05361H118.555L116.425 3.26361L114.295 1.05361H112.785V7.95361ZM124.638 8.08361C126.808 8.08361 128.208 6.54361 128.208 4.49361C128.208 2.45361 126.828 0.913613 124.638 0.913613C122.458 0.913613 121.068 2.46361 121.068 4.49361C121.068 6.52361 122.468 8.08361 124.638 8.08361ZM124.638 6.75361C123.548 6.75361 122.878 5.93361 122.878 4.49361C122.878 3.01361 123.548 2.23361 124.638 2.23361C125.708 2.23361 126.398 3.01361 126.398 4.49361C126.398 5.96361 125.728 6.75361 124.638 6.75361ZM129.211 7.95361H130.981V3.86361L134.281 7.95361H135.821V0.913613L134.061 1.23361V5.35361L130.591 1.05361H129.211V7.95361ZM138.93 2.15361C139.24 2.11361 139.51 2.09361 139.77 2.09361C141.21 2.09361 141.63 3.21361 141.63 4.45361C141.63 5.75361 141.16 6.81361 139.72 6.81361C139.44 6.81361 139.2 6.80361 138.93 6.74361V2.15361ZM137.16 7.76361C138.02 8.02361 138.71 8.08361 139.45 8.08361C141.79 8.08361 143.44 6.84361 143.44 4.39361C143.44 2.35361 142.34 0.913613 140.26 0.913613C139.67 0.913613 139.21 1.02361 138.71 1.23361L137.16 0.913613V7.76361ZM144.436 7.95361H149.526V6.67361H146.206V4.99361H148.616V3.62361L146.206 3.92361V2.33361H149.446V1.05361H144.436V7.95361ZM60.4964 23.9536H64.0364V18.5136H65.3764L68.2964 23.9536H72.6764L68.5764 18.2136C70.6964 17.3936 71.7164 15.8736 71.7164 14.0936C71.7164 11.6136 69.9764 9.87361 66.4564 9.87361C65.5164 9.87361 64.5564 10.0936 63.5964 10.5136L60.4964 9.87361V23.9536ZM64.0364 16.3736V12.3736C64.2964 12.3136 64.9764 12.2336 65.5764 12.2336C67.1964 12.2336 68.0764 13.0136 68.0764 14.2136C68.0764 15.6136 67.1764 16.3736 65.2564 16.3736H64.0364ZM78.8572 18.2336C78.8572 22.2336 81.1572 24.2136 85.2372 24.2136C89.3372 24.2136 91.6572 21.8136 91.6572 18.3736V9.87361L88.1172 10.5136V18.2136C88.1172 20.2736 87.2172 21.6336 85.2972 21.6336C83.3572 21.6336 82.3972 20.4136 82.3972 18.1136V10.1536H78.8572V18.2336ZM108.128 21.7136C107.668 21.8536 106.928 21.9336 106.488 21.9336C104.148 21.9336 102.328 20.1536 102.328 17.0936C102.328 13.6336 104.648 12.4136 107.088 12.4136C107.848 12.4136 108.808 12.4936 110.028 12.9736L110.988 10.6936C109.368 10.0336 107.948 9.87361 106.568 9.87361C102.428 9.87361 98.7079 12.3536 98.7079 17.1736C98.7079 21.9936 102.188 24.2136 105.388 24.2136C106.708 24.2136 107.608 23.9336 108.468 23.6336L111.168 24.2136V16.7736H105.768V19.1136L108.128 18.8736V21.7136ZM118.453 23.6736C120.213 24.1136 121.733 24.2136 122.973 24.2136C127.313 24.2136 129.633 22.5736 129.633 19.7336C129.633 17.9136 128.353 16.9136 127.033 16.3136C128.213 15.6936 129.053 14.6336 129.053 13.2736C129.053 11.2936 127.493 9.87361 124.493 9.87361C123.273 9.87361 122.193 10.2336 121.553 10.5136L118.453 9.87361V23.6736ZM121.993 17.9136H123.313C125.273 17.9136 126.153 18.3936 126.153 19.6536C126.153 21.1736 124.853 21.6536 123.293 21.6536C122.833 21.6536 122.473 21.6136 121.993 21.5336V17.9136ZM121.993 15.6336V12.4136C122.373 12.3736 122.713 12.3736 123.313 12.3736C124.733 12.3736 125.573 12.7136 125.573 13.7936C125.573 14.8136 124.873 15.6336 122.893 15.6336H121.993ZM140.01 23.9536H143.53V18.5736L149.11 10.1536H145.07L142.27 15.7936L138.83 10.1536H134.83L140.01 18.5536V23.9536ZM90.985 28.7776C91.525 28.4296 92.197 28.2256 92.797 28.2256C93.361 28.2256 93.637 28.6096 93.637 29.2336V29.4736C92.737 29.4856 91.597 29.5216 90.481 29.6656C90.073 30.1216 89.905 30.5896 89.905 31.1656C89.905 32.3536 90.721 33.1096 92.029 33.1096C92.677 33.1096 93.385 32.8936 93.889 32.5696L95.689 33.1096V29.2096C95.689 27.6976 94.777 26.7736 93.061 26.7736C91.861 26.7736 91.021 27.0136 90.145 27.5896L90.985 28.7776ZM93.637 31.7776C93.469 31.8496 93.205 31.8976 92.869 31.8976C92.149 31.8976 91.885 31.3816 91.885 30.9256C91.885 30.7576 91.921 30.6016 91.945 30.5176C92.581 30.3856 92.965 30.3136 93.637 30.2176V31.7776ZM99.3984 32.9536H101.222L103.622 26.9296H101.498L100.346 30.6736L99.2064 26.9296H97.0704L99.3984 32.9536ZM110.119 30.9616C109.567 31.3576 109.075 31.5496 108.439 31.5496C107.707 31.5496 106.987 31.2736 106.867 30.3376H111.043C111.103 30.0616 111.139 29.8096 111.139 29.4496C111.139 27.7216 109.939 26.7736 108.139 26.7736C106.195 26.7736 104.827 28.1056 104.827 29.9656C104.827 31.8736 106.051 33.1096 108.259 33.1096C109.483 33.1096 110.263 32.7496 110.995 32.2456L110.119 30.9616ZM106.831 29.5816C106.927 28.6936 107.431 28.2136 108.103 28.2136C108.715 28.2136 109.171 28.6456 109.219 29.3056L106.831 29.5816ZM117.918 31.2976C117.438 31.5256 117.042 31.6096 116.598 31.6096C115.674 31.6096 115.002 31.1176 115.002 29.9656C115.002 28.8016 115.698 28.3456 116.658 28.3456C117.078 28.3456 117.462 28.4416 117.786 28.6216L118.53 27.2776C117.906 26.9176 117.258 26.7736 116.418 26.7736C114.486 26.7736 112.914 27.9016 112.914 29.9656C112.914 32.0296 114.198 33.1096 116.31 33.1096C117.102 33.1096 117.81 32.9416 118.374 32.6296L117.918 31.2976Z" fill="white"/>
<path fill-rule="evenodd" clip-rule="evenodd" d="M52.2217 36.9536H149.222L143.142 43.0586L149.222 49.9536H52.2217L58.2959 43.0586L52.2217 36.9536ZM70.7754 47H69.0156V40.1001H70.5254L72.6553 42.3101L74.7861 40.1001H76.2959V47H74.5254V42.4302L72.6553 44.5L70.7754 42.4302V47ZM80.2783 45.8301C80.8086 45.8301 81.2188 45.6699 81.6787 45.3398L82.4092 46.4102C81.7988 46.8301 81.1484 47.1299 80.1289 47.1299C78.2891 47.1299 77.2686 46.1001 77.2686 44.5098C77.2686 42.96 78.4092 41.8501 80.0283 41.8501C81.5283 41.8501 82.5283 42.6401 82.5283 44.0801C82.5283 44.3799 82.499 44.5898 82.4492 44.8198H78.9688C79.0684 45.6001 79.6689 45.8301 80.2783 45.8301ZM79.999 43.0498C79.4385 43.0498 79.0186 43.4502 78.9385 44.1899L80.9287 43.96C80.9082 43.6782 80.7988 43.4463 80.6279 43.2871C80.4658 43.1357 80.248 43.0498 79.999 43.0498ZM88.3779 39.46V47.1299L86.8682 46.7998C86.4678 47.0098 86.0781 47.1299 85.5381 47.1299C84.2178 47.1299 83.1279 46.3599 83.1279 44.5298C83.1279 42.6899 84.3877 41.8501 85.7383 41.8501C86.1582 41.8501 86.4482 41.9199 86.668 41.9902V39.7402L88.3779 39.46ZM86.0479 46.1499C86.2783 46.1499 86.4277 46.1201 86.668 46.0498V42.9102L86.5996 42.9058C86.4814 42.897 86.3828 42.8901 86.2979 42.8901C85.3877 42.8901 84.8379 43.3198 84.8379 44.52C84.8379 45.6099 85.2979 46.1499 86.0479 46.1499ZM91.2207 41.8501V47H89.501V42.0898L91.2207 41.8501ZM91.291 40.4399C91.291 41 90.8613 41.3901 90.3613 41.3901C89.8408 41.3901 89.4414 41 89.4414 40.4399C89.4414 39.8701 89.8408 39.5 90.3613 39.5C90.8613 39.5 91.291 39.8701 91.291 40.4399ZM94.4834 43.0601C93.9834 43.0601 93.4238 43.23 92.9736 43.52L92.2734 42.5298C93.0039 42.0498 93.7031 41.8501 94.7031 41.8501C96.1338 41.8501 96.8936 42.6201 96.8936 43.8799V47.1299L95.3936 46.6802C94.9736 46.9502 94.3838 47.1299 93.8438 47.1299C92.7539 47.1299 92.0732 46.5 92.0732 45.5098C92.0732 45.0298 92.2139 44.6401 92.5537 44.2598C93.4834 44.1401 94.4336 44.1099 95.1836 44.1001V43.8999C95.1836 43.5562 95.083 43.2998 94.8789 43.1655C94.7744 43.0967 94.6426 43.0601 94.4834 43.0601ZM94.543 46.1201C94.8232 46.1201 95.043 46.0801 95.1836 46.02V44.7202C94.623 44.7998 94.3037 44.8599 93.7734 44.9702C93.7539 45.04 93.7236 45.1699 93.7236 45.3101C93.7236 45.6899 93.9434 46.1201 94.543 46.1201ZM99.6484 47H97.9385V41.8501L99.4883 42.3198C99.9688 42.0698 100.589 41.8501 101.289 41.8501C101.858 41.8501 102.219 42.0698 102.479 42.3701C102.948 42.1001 103.648 41.8501 104.369 41.8501C105.539 41.8501 105.969 42.5898 105.969 43.7798V47H104.259V43.7002C104.259 43.1802 104.129 43.04 103.679 43.04C103.408 43.04 103.089 43.1001 102.729 43.1802C102.789 43.4102 102.818 43.6899 102.818 43.9302V47H101.089V43.6899C101.089 43.1602 100.959 43.0601 100.539 43.0601C100.278 43.0601 99.9385 43.1201 99.6484 43.2002V47ZM109.829 45.8301C110.359 45.8301 110.77 45.6699 111.229 45.3398L111.96 46.4102C111.35 46.8301 110.699 47.1299 109.68 47.1299C107.84 47.1299 106.819 46.1001 106.819 44.5098C106.819 42.96 107.96 41.8501 109.579 41.8501C111.079 41.8501 112.079 42.6401 112.079 44.0801C112.079 44.3799 112.05 44.5898 112 44.8198H108.52C108.619 45.6001 109.22 45.8301 109.829 45.8301ZM109.55 43.0498C108.989 43.0498 108.569 43.4502 108.489 44.1899L110.479 43.96C110.439 43.4102 110.06 43.0498 109.55 43.0498ZM114.951 47.1299C113.771 47.1299 113.081 46.75 113.081 45.27V42.9199H112.381V42.2202L113.081 42.1201V40.6499L114.801 40.27V42.02L116.411 41.8301L116.312 42.9199H114.801V45.02C114.801 45.5801 114.961 45.9102 115.571 45.9102C115.861 45.9102 116.091 45.8701 116.331 45.77L116.591 46.7598C116.262 46.9199 115.671 47.1299 114.951 47.1299ZM118.925 47H117.215V41.8501L118.765 42.3198C119.215 41.98 119.835 41.8501 120.445 41.8501C120.575 41.8501 120.725 41.8599 120.854 41.8799L120.585 43.3301C120.095 43.23 119.455 43.1899 118.925 43.1899V47ZM123.242 41.8501V47H121.522V42.0898L123.242 41.8501ZM123.312 40.4399C123.312 41 122.883 41.3901 122.383 41.3901C121.862 41.3901 121.463 41 121.463 40.4399C121.463 39.8701 121.862 39.5 122.383 39.5C122.883 39.5 123.312 39.8701 123.312 40.4399ZM127.62 45.772C127.925 45.6987 128.204 45.5557 128.505 45.3398L129.235 46.4102C128.625 46.8301 127.975 47.1299 126.955 47.1299C125.115 47.1299 124.095 46.1001 124.095 44.5098C124.095 42.96 125.235 41.8501 126.854 41.8501C128.354 41.8501 129.354 42.6401 129.354 44.0801C129.354 44.2324 129.347 44.3618 129.333 44.4824C129.319 44.5986 129.3 44.707 129.275 44.8198H125.795C125.895 45.6001 126.495 45.8301 127.104 45.8301C127.288 45.8301 127.458 45.8105 127.62 45.772ZM126.825 43.0498C126.265 43.0498 125.845 43.4502 125.765 44.1899L127.755 43.96C127.715 43.4102 127.335 43.0498 126.825 43.0498Z" fill="white"/>
<path fill-rule="evenodd" clip-rule="evenodd" d="M6.49426 32.6057C7.79451 26.5988 10.5709 19.7906 16.2398 13.9275L16.2396 13.9259C27.1394 2.65113 41.8908 1.94875 47.749 2.16962C49.2543 2.22525 50.4696 3.40194 50.5778 4.90395C50.7608 7.4588 50.8246 11.7153 49.9298 16.6391L36.0452 3.21472C34.7269 3.50035 33.3631 3.86079 31.974 4.30445L48.9785 20.7459C49.2837 19.6653 49.5402 18.6008 49.7521 17.5628C48.5041 23.7022 45.734 30.7498 39.8907 36.7933C34.356 42.5184 27.8281 45.5175 21.9758 47.054C22.6938 46.8646 23.4218 46.6531 24.157 46.4183L7.15096 29.977C6.8998 30.8661 6.68171 31.7442 6.49426 32.6057ZM6.2001 34.0844C5.3059 39.0066 5.3696 43.2616 5.5525 45.8152C5.66071 47.3172 6.87597 48.4939 8.38125 48.5496C10.9396 48.646 15.194 48.5664 20.083 47.507L6.2001 34.0844ZM35.613 21.5089L38.944 24.6128C39.3067 24.9508 39.2929 25.337 38.9876 25.6645L30.0312 35.2762C29.6897 35.6426 29.3418 35.6445 28.9792 35.3066L25.3427 31.918L22.2641 32.0245L22.1512 28.9441L18.5168 25.5574C18.1699 25.2341 18.1585 24.8487 18.4756 24.5083L27.4323 14.8965C27.7496 14.556 28.1195 14.5262 28.4817 14.8636L31.815 17.9697L31.9484 21.6318L35.613 21.5089ZM27.5137 30.4766L29.3156 32.1557L35.2798 25.7552L33.5367 24.1309L29.4887 24.2714L29.3525 20.232L27.6007 18.5996L21.6366 25.0001L23.4689 26.7075L27.2417 22.6587L27.3664 26.5489L31.2865 26.4278L27.5137 30.4766Z" fill="white"/>
</svg>
